<svg width="87" height="74" viewBox="0 0 87 74" fill="none" xmlns="http://www.w3.org/2000/svg">
<path d="M0.558 0.399998H6.752C8.90533 0.399998 10.476 0.906665 11.464 1.92C12.452 2.908 12.946 4.44066 12.946 6.518V8.152C12.946 10.9133 12.034 12.6613 10.21 13.396V13.472C11.2233 13.776 11.9327 14.3967 12.338 15.334C12.7687 16.2713 12.984 17.5253 12.984 19.096V23.77C12.984 24.53 13.0093 25.1507 13.06 25.632C13.1107 26.088 13.2373 26.544 13.44 27H9.184C9.032 26.5693 8.93067 26.164 8.88 25.784C8.82933 25.404 8.804 24.72 8.804 23.732V18.868C8.804 17.652 8.60133 16.8033 8.196 16.322C7.816 15.8407 7.14467 15.6 6.182 15.6H4.738V27H0.558V0.399998ZM6.258 11.8C7.094 11.8 7.71467 11.5847 8.12 11.154C8.55067 10.7233 8.766 10.0013 8.766 8.988V6.936C8.766 5.97333 8.58867 5.27667 8.234 4.846C7.90467 4.41533 7.37267 4.2 6.638 4.2H4.738V11.8H6.258ZM21.9262 27.38C19.8742 27.38 18.3035 26.7973 17.2142 25.632C16.1248 24.4667 15.5802 22.82 15.5802 20.692V6.708C15.5802 4.58 16.1248 2.93333 17.2142 1.768C18.3035 0.602665 19.8742 0.0199986 21.9262 0.0199986C23.9782 0.0199986 25.5488 0.602665 26.6382 1.768C27.7275 2.93333 28.2722 4.58 28.2722 6.708V20.692C28.2722 22.82 27.7275 24.4667 26.6382 25.632C25.5488 26.7973 23.9782 27.38 21.9262 27.38ZM21.9262 23.58C23.3702 23.58 24.0922 22.706 24.0922 20.958V6.442C24.0922 4.694 23.3702 3.82 21.9262 3.82C20.4822 3.82 19.7602 4.694 19.7602 6.442V20.958C19.7602 22.706 20.4822 23.58 21.9262 23.58ZM34.269 15.676L29.215 0.399998H33.661L36.511 10.166H36.587L39.437 0.399998H43.503L38.449 15.676V27H34.269V15.676ZM46.872 0.399998H52.534L56.866 27H52.686L51.926 21.718V21.794H47.176L46.416 27H42.54L46.872 0.399998ZM51.432 18.184L49.57 5.036H49.494L47.67 18.184H51.432ZM58.8939 0.399998H63.0739V23.2H69.9519V27H58.8939V0.399998ZM6.486 73.38C4.45933 73.38 2.914 72.81 1.85 71.67C0.786 70.5047 0.254 68.8453 0.254 66.692V52.708C0.254 50.5547 0.786 48.908 1.85 47.768C2.914 46.6027 4.45933 46.02 6.486 46.02C8.51267 46.02 10.058 46.6027 11.122 47.768C12.186 48.908 12.718 50.5547 12.718 52.708V54.988H8.766V52.442C8.766 50.694 8.044 49.82 6.6 49.82C5.156 49.82 4.434 50.694 4.434 52.442V66.996C4.434 68.7187 5.156 69.58 6.6 69.58C8.044 69.58 8.766 68.7187 8.766 66.996V61.79H6.676V57.99H12.718V66.692C12.718 68.8453 12.186 70.5047 11.122 71.67C10.058 72.81 8.51267 73.38 6.486 73.38ZM18.6318 46.4H24.2938L28.6258 73H24.4458L23.6858 67.718V67.794H18.9358L18.1758 73H14.2998L18.6318 46.4ZM23.1918 64.184L21.3298 51.036H21.2538L19.4297 64.184H23.1918ZM30.6537 46.4H36.6197L39.2797 65.438H39.3557L42.0157 46.4H47.9817V73H44.0297V52.86H43.9537L40.9137 73H37.4177L34.3777 52.86H34.3017V73H30.6537V46.4ZM51.101 46.4H55.281V73H51.101V46.4ZM58.4115 46.4H63.6555L67.7215 62.322H67.7975V46.4H71.5215V73H67.2275L62.2115 53.582H62.1355V73H58.4115V46.4ZM80.5563 73.38C78.5296 73.38 76.9843 72.81 75.9203 71.67C74.8563 70.5047 74.3243 68.8453 74.3243 66.692V52.708C74.3243 50.5547 74.8563 48.908 75.9203 47.768C76.9843 46.6027 78.5296 46.02 80.5563 46.02C82.583 46.02 84.1283 46.6027 85.1923 47.768C86.2563 48.908 86.7883 50.5547 86.7883 52.708V54.988H82.8363V52.442C82.8363 50.694 82.1143 49.82 80.6703 49.82C79.2263 49.82 78.5043 50.694 78.5043 52.442V66.996C78.5043 68.7187 79.2263 69.58 80.6703 69.58C82.1143 69.58 82.8363 68.7187 82.8363 66.996V61.79H80.7463V57.99H86.7883V66.692C86.7883 68.8453 86.2563 70.5047 85.1923 71.67C84.1283 72.81 82.583 73.38 80.5563 73.38Z" fill="White"/>
</svg>
